<svg width="480" height="71" viewBox="0 0 480 71" fill="none" xmlns="http://www.w3.org/2000/svg">
<g clip-path="url(#clip0_116_12)">
<path d="M0.720215 69V1.8H35.0882C43.9202 1.8 50.5122 3.432 54.8642 6.696C59.2162 9.896 61.3922 14.12 61.3922 19.368C61.3922 22.824 60.4642 25.864 58.6082 28.488C56.8162 31.048 54.2562 33.096 50.9282 34.632C47.6642 36.104 43.7602 36.84 39.2162 36.84L41.1362 32.232C45.8722 32.232 50.0002 32.968 53.5202 34.44C57.0402 35.848 59.7602 37.928 61.6802 40.68C63.6642 43.368 64.6562 46.664 64.6562 50.568C64.6562 56.392 62.2882 60.936 57.5522 64.2C52.8802 67.4 46.0322 69 37.0082 69H0.720215ZM19.5362 55.272H35.4722C38.7362 55.272 41.2002 54.728 42.8642 53.64C44.5922 52.488 45.4562 50.76 45.4562 48.456C45.4562 46.152 44.5922 44.456 42.8642 43.368C41.2002 42.216 38.7362 41.64 35.4722 41.64H18.1922V28.488H32.5922C35.7922 28.488 38.1922 27.944 39.7922 26.856C41.3922 25.768 42.1922 24.136 42.1922 21.96C42.1922 19.784 41.3922 18.184 39.7922 17.16C38.1922 16.072 35.7922 15.528 32.5922 15.528H19.5362V55.272ZM108.389 70.344C103.013 70.344 98.0535 69.48 93.5095 67.752C88.9655 66.024 84.9975 63.592 81.6055 60.456C78.2775 57.256 75.6855 53.544 73.8295 49.32C71.9735 45.096 71.0455 40.456 71.0455 35.4C71.0455 30.344 71.9735 25.704 73.8295 21.48C75.6855 17.256 78.2775 13.576 81.6055 10.44C84.9975 7.24 88.9655 4.776 93.5095 3.048C98.0535 1.32 103.013 0.455994 108.389 0.455994C113.829 0.455994 118.789 1.32 123.269 3.048C127.813 4.776 131.749 7.24 135.077 10.44C138.405 13.576 140.997 17.256 142.853 21.48C144.773 25.704 145.733 30.344 145.733 35.4C145.733 40.456 144.773 45.128 142.853 49.416C140.997 53.64 138.405 57.32 135.077 60.456C131.749 63.592 127.813 66.024 123.269 67.752C118.789 69.48 113.829 70.344 108.389 70.344ZM108.389 54.6C110.949 54.6 113.317 54.152 115.493 53.256C117.733 52.36 119.653 51.08 121.253 49.416C122.917 47.688 124.197 45.64 125.093 43.272C126.053 40.904 126.533 38.28 126.533 35.4C126.533 32.456 126.053 29.832 125.093 27.528C124.197 25.16 122.917 23.144 121.253 21.48C119.653 19.752 117.733 18.44 115.493 17.544C113.317 16.648 110.949 16.2 108.389 16.2C105.829 16.2 103.429 16.648 101.189 17.544C99.0135 18.44 97.0935 19.752 95.4295 21.48C93.8295 23.144 92.5495 25.16 91.5895 27.528C90.6935 29.832 90.2455 32.456 90.2455 35.4C90.2455 38.28 90.6935 40.904 91.5895 43.272C92.5495 45.64 93.8295 47.688 95.4295 49.416C97.0935 51.08 99.0135 52.36 101.189 53.256C103.429 54.152 105.829 54.6 108.389 54.6ZM189.577 70.344C184.201 70.344 179.241 69.48 174.697 67.752C170.153 66.024 166.185 63.592 162.793 60.456C159.465 57.256 156.873 53.544 155.017 49.32C153.161 45.096 152.233 40.456 152.233 35.4C152.233 30.344 153.161 25.704 155.017 21.48C156.873 17.256 159.465 13.576 162.793 10.44C166.185 7.24 170.153 4.776 174.697 3.048C179.241 1.32 184.201 0.455994 189.577 0.455994C195.017 0.455994 199.977 1.32 204.457 3.048C209.001 4.776 212.937 7.24 216.265 10.44C219.593 13.576 222.185 17.256 224.041 21.48C225.961 25.704 226.921 30.344 226.921 35.4C226.921 40.456 225.961 45.128 224.041 49.416C222.185 53.64 219.593 57.32 216.265 60.456C212.937 63.592 209.001 66.024 204.457 67.752C199.977 69.48 195.017 70.344 189.577 70.344ZM189.577 54.6C192.137 54.6 194.505 54.152 196.681 53.256C198.921 52.36 200.841 51.08 202.441 49.416C204.105 47.688 205.385 45.64 206.281 43.272C207.241 40.904 207.721 38.28 207.721 35.4C207.721 32.456 207.241 29.832 206.281 27.528C205.385 25.16 204.105 23.144 202.441 21.48C200.841 19.752 198.921 18.44 196.681 17.544C194.505 16.648 192.137 16.2 189.577 16.2C187.017 16.2 184.617 16.648 182.377 17.544C180.201 18.44 178.281 19.752 176.617 21.48C175.017 23.144 173.737 25.16 172.777 27.528C171.881 29.832 171.433 32.456 171.433 35.4C171.433 38.28 171.881 40.904 172.777 43.272C173.737 45.64 175.017 47.688 176.617 49.416C178.281 51.08 180.201 52.36 182.377 53.256C184.617 54.152 187.017 54.6 189.577 54.6ZM260.492 70.344C254.988 70.344 249.676 69.672 244.556 68.328C239.5 66.92 235.372 65.128 232.172 62.952L238.412 48.936C241.42 50.856 244.876 52.456 248.78 53.736C252.748 54.952 256.684 55.56 260.588 55.56C263.212 55.56 265.324 55.336 266.924 54.888C268.524 54.376 269.676 53.736 270.38 52.968C271.148 52.136 271.532 51.176 271.532 50.088C271.532 48.552 270.828 47.336 269.42 46.44C268.012 45.544 266.188 44.808 263.948 44.232C261.708 43.656 259.212 43.08 256.46 42.504C253.772 41.928 251.052 41.192 248.3 40.296C245.612 39.4 243.148 38.248 240.908 36.84C238.668 35.368 236.844 33.48 235.436 31.176C234.028 28.808 233.324 25.832 233.324 22.248C233.324 18.216 234.412 14.568 236.588 11.304C238.828 8.04 242.156 5.416 246.572 3.432C250.988 1.448 256.492 0.455994 263.084 0.455994C267.5 0.455994 271.82 0.967995 276.044 1.992C280.332 2.952 284.14 4.392 287.468 6.31199L281.612 20.424C278.412 18.696 275.244 17.416 272.108 16.584C268.972 15.688 265.932 15.24 262.988 15.24C260.364 15.24 258.252 15.528 256.652 16.104C255.052 16.616 253.9 17.32 253.196 18.216C252.492 19.112 252.14 20.136 252.14 21.288C252.14 22.76 252.812 23.944 254.156 24.84C255.564 25.672 257.388 26.376 259.628 26.952C261.932 27.464 264.428 28.008 267.116 28.584C269.868 29.16 272.588 29.896 275.276 30.792C278.028 31.624 280.524 32.776 282.764 34.248C285.004 35.656 286.796 37.544 288.14 39.912C289.548 42.216 290.252 45.128 290.252 48.648C290.252 52.552 289.132 56.168 286.892 59.496C284.716 62.76 281.42 65.384 277.004 67.368C272.652 69.352 267.148 70.344 260.492 70.344ZM312.399 69V16.872H291.759V1.8H351.951V16.872H331.407V69H312.399ZM378.978 70.344C374.306 70.344 369.634 69.768 364.962 68.616C360.354 67.464 356.322 65.832 352.866 63.72L359.778 49.416C362.466 51.208 365.442 52.584 368.706 53.544C372.034 54.504 375.266 54.984 378.402 54.984C381.666 54.984 384.258 54.376 386.178 53.16C388.098 51.944 389.058 50.216 389.058 47.976C389.058 45.992 388.258 44.424 386.658 43.272C385.058 42.056 382.434 41.448 378.786 41.448H370.818V29.448L388.866 9.96L390.69 16.488H356.322V1.8H404.898V13.704L386.85 33.192L377.538 27.912H382.722C391.106 27.912 397.442 29.8 401.73 33.576C406.082 37.288 408.258 42.088 408.258 47.976C408.258 51.816 407.202 55.432 405.09 58.824C403.042 62.216 399.874 65 395.586 67.176C391.298 69.288 385.762 70.344 378.978 70.344ZM417.814 69V1.8H448.534C454.678 1.8 459.958 2.792 464.374 4.776C468.854 6.76 472.31 9.64 474.742 13.416C477.174 17.128 478.39 21.544 478.39 26.664C478.39 31.72 477.174 36.104 474.742 39.816C472.31 43.464 468.854 46.28 464.374 48.264C459.958 50.184 454.678 51.144 448.534 51.144H428.374L436.822 43.176V69H417.814ZM459.382 69L442.678 44.52H462.934L479.734 69H459.382ZM436.822 45.192L428.374 36.456H447.382C451.35 36.456 454.294 35.592 456.214 33.864C458.198 32.136 459.19 29.736 459.19 26.664C459.19 23.528 458.198 21.096 456.214 19.368C454.294 17.64 451.35 16.776 447.382 16.776H428.374L436.822 8.04V45.192Z" fill="url(#paint0_linear_116_12)"/>
</g>
<defs>
<linearGradient id="paint0_linear_116_12" x1="80.0002" y1="49.5" x2="362.711" y2="236.389" gradientUnits="userSpaceOnUse">
<stop stop-color="#7546FA"/>
<stop offset="0.375" stop-color="#4678FA"/>
<stop offset="0.646794" stop-color="#9313CF" stop-opacity="0.72"/>
<stop offset="1" stop-color="#468EFA"/>
</linearGradient>
<clipPath id="clip0_116_12">
<rect width="480" height="71" fill="white"/>
</clipPath>
</defs>
</svg>
