<svg width="162" height="175" viewBox="0 0 162 175" fill="none" xmlns="http://www.w3.org/2000/svg">
<path d="M50.9242 71.6678L11.64 111.229L14.6254 94.9568C17.0723 81.6208 21.5372 68.7358 27.8665 56.7448L35.1472 42.9508C37.9448 37.6508 41.297 32.6628 45.1473 28.0698L46.3918 26.5848C50.7888 21.3398 55.9178 16.7558 61.621 12.9718L62.6564 12.2848C67.0242 9.38682 71.6984 6.97982 76.5941 5.10782L76.9355 4.97684C80.1749 3.73784 83.5069 2.75384 86.8999 2.03284L89.2589 1.53284C96.2099 0.0568355 103.383 -0.0421637 110.372 1.23984C115.421 2.16684 120.313 3.80282 124.902 6.09982L127.016 7.15683C130.608 8.95483 134.018 11.0958 137.198 13.5488L138.524 14.5728C144.193 18.9458 148.935 24.4028 152.474 30.6258C154.276 33.7918 155.752 37.1328 156.881 40.5968L157.695 43.0948C158.837 46.6008 159.67 50.1998 160.186 53.8508C161.137 60.5858 160.99 67.4628 159.763 74.1528C158.665 80.1338 156.712 85.9558 153.971 91.3838L153.27 92.7738C151.173 96.9278 148.691 100.876 145.857 104.567L142.477 108.969C138.233 114.496 133.367 119.515 127.974 123.928L127.099 124.643C121.941 128.863 116.375 132.56 110.484 135.678L65.8546 159.302L96.7469 110.068L0 174.67L50.9242 71.6678Z" fill="#FCDE24"/>
<path d="M25.1841 87.2798L42.1256 36.5028L62.9159 11.8498C70.0316 8.08383 77.4274 4.84882 85.0239 2.18082L89.0679 1.22184C95.1629 -0.225164 101.493 -0.389175 107.655 0.741825L111.263 1.40384C117.67 2.57884 123.854 4.75184 129.589 7.84284L130.817 8.50483C134.697 10.5968 138.294 13.1778 141.517 16.1858C145.489 19.8918 148.85 24.2028 151.475 28.9598L154.38 34.2238L157.554 42.3098C159.582 47.4768 160.775 52.9338 161.088 58.4758C161.409 64.1608 160.799 69.8608 159.283 75.3488L159.008 76.3458C157.694 81.1028 155.778 85.6728 153.307 89.9448L151.863 93.4028C149.825 98.2848 146.8 102.694 142.98 106.354C141.499 107.772 139.907 109.069 138.22 110.234L115.728 125.751L84.5779 140.37L100.361 115.307L112.551 98.7338C113.695 96.6568 111.451 94.3568 109.346 95.4488L46.1374 128.233L64.5902 55.3668L25.1841 87.2798Z" fill="#FB805B"/>
<path d="M88.1327 43.4198L64.6216 63.5058L66.8773 51.2118L68.6821 41.3758L71.2069 34.1018C72.3956 30.6778 73.9522 27.3918 75.8494 24.3028L76.9497 22.5118C80.0747 17.4248 84.2797 13.0868 89.2677 9.80682C93.0557 7.31482 97.2337 5.47483 101.629 4.35983L107.786 2.79883H116.591L117.339 2.96384C122.144 4.02284 126.751 5.83182 130.993 8.32382C134.754 10.5338 138.188 13.2588 141.194 16.4198L142.082 17.3518C144.712 20.1168 147.053 23.1418 149.068 26.3828L149.595 27.2298C152.446 31.8148 154.722 36.7338 156.371 41.8748L156.591 42.5618C156.591 48.2058 155.879 53.8278 154.472 59.2938L153.888 61.5618C151.224 67.1248 147.454 72.0858 142.808 76.1418L139.717 78.8398C134.007 83.8258 127.475 87.7878 120.393 90.4938C111.683 93.8238 102.666 97.2008 102.716 96.9298C102.788 96.5358 114.672 77.9418 120.605 68.6948L63.7061 104.515L88.1327 43.4198Z" fill="#E22774"/>
</svg>
